<?xml version="1.0" encoding="UTF-8"?>
<svg id="Camada_1" data-name="Camada 1" xmlns="http://www.w3.org/2000/svg" viewBox="0 0 550.94 110.33">
  <defs>
    <style>
      .cls-1, .cls-2 {
        fill: #a6ce39;
      }

      .cls-3 {
        fill: #ffffff;
      }

      .cls-3, .cls-2 {
        fill-rule: evenodd;
      }
    </style>
  </defs>
  <path class="cls-2" d="M508.8,86.18h.38c.86-1.41,1.09-2.69,3.18-4.35,1.42,.46,.95,.56,2.17-1.36,1.37-2.16,2.14-.43,2.68-5.47,.26-2.44,.51-1.59,.86-3.35l.74,.24c.74-.87,.44-.9,1.74-1.41,.88-.35,1.37-.97,1.99-1.17,.89-.29,1.66,.08,2.55-.6,.54-.41,1.06-1.19,2.14-.81,1.95,.68,3.41-.03,4.69-1.02,.73-.56,.96-.91,1.45-1.7,.64-1.02,1.07-.77,1.68-1.47,.47-.53,.98-1.23,1.4-1.75,1.02-1.23,.29-1.15,.68-2.47,.51-1.74,1.59,1.01,2.98-9.58,.37-2.78,1.67-1.31,3.2-3.28,.64-.82,.6-1.14,1.09-2.06,.88-1.67,2.16-.23,3.73-2.57,.4-.59,1.01-1.15,1.51-1.65,1.31-1.35,1.54-2.36,1.07-4.71-.44-2.19-.17-3.4-2.35-3.93-2.15-.53-1.91-.58-3.54-2.79-2.28-3.11-1.29-1.42-2.39-2.35-.33-.28-.4-.55-.77-.79-1.28-.83-3.17,.56-5.18-.87-.77-.55-.91-.95-2.3-.79-.92,.1-1.62,.57-2.48,.72,.13-.87,.5-1.59,.49-2.49-1.47-.92-3.02-1.94-4.67-2.39-3.08-.84-3.45,.46-5.31,1.51-.27-.2-.47-.48-.59-.8,1.48-.84,.73-.1,2.39-1.49,.3-.25,.46-.28,.63-.74-.51-.81-2.74-1.14-3.86-.93-1.32,.25-1.89,1.52-3.28,1.43,.13-1.05,1.52-2.22,2.2-2.77,.41-.33,1.26-.75,1.44-1.05,.26-.43,.04-.55,.32-.99,.2-.32,.39-.31,.61-.68-1.25-.87-1.72,.11-2-1.95-.08-.62-.54-2.8-.88-3.18-.72-.08-.89,.26-1.22,.62-.55,.59-.39,.49-.52,1.44-1.78,.74-.82,1.19-2.03,1.42-2.85,.55-3.17-.8-4.08-1.01-2.99-.69-1.63,1.12-3.7,1.1-1.12-.01-.52-.5-3.01,.12-1.45,.36-1.82,.57-2.66-.39-2.14-2.48-.11-4.36-.03-5.25-.19-.22-.71-.58-.79-.99-.16-.74,.26-.6-.24-1.39h-.54c-.76,.91-1.2,1.65-2.34,1.82-2.81,.44-1.44-.39-2.97,1.2-.83-.2-1.53-1.15-2.52-1.01-.47,.61-.47,1.45-.02,2.19,.49,.82,1.08,.57,1.29,1.45-.28,.7-.95,.86-1.6,1.25-.68,.41-1.19,.67-1.84,1.05-1.06,.62-.7,.72-2.06,.57-1.14-.13-1.26,.55-2.01-.59-.45-.67-.3-1.51-1.07-1.82-.81-.33-1.67,.16-2.53,.19-.72,.03-2.3-.41-2.5,.42-.26,1.06,1.14,.43,1.06,1.67-.74,.53-2.54,0-1.54,1.92,.44,.83,1.45,1.56,.95,2.76-.24,.6-.56,.83-.64,1.5-.07,.63-.81,4.41-1.24,4.64-.64,.21-1.13-.23-2.06,.04-.94,.27-.77,.34-1.92,.25l-.77,.59c-1.79,.92-1.76,3.11-2.24,3.8-.32,.46-.81,.51-1.1,1.27-.36,.97,.36,1.22,.58,1.72,.35,.81-.27,.03,.64,1.73,.45,.85,.15,.97,.99,1.37,1.06,.5,.63,.34,1.16,1.22,1.05,.07,2.08-.72,3.17-.95-.07,1.01-.64,3,.74,3.17,.64,.08,3.35,0,3.9-.13,.89-.23,.6-.48,1.38-.68,1.69-.45,.53-1.23,3.63-1.56,2.52-.27-1.3,2.96,2.32,5.76,1.04,.8,.5-.34,2.77,1.16,.77,.51,.22,.38,1.33,.68,.55,.15,.58,.55,.84,.96,1.52,.33,1.34-.09,2.77,.79,.49,.3,.48,.59,.52,1.34,.1,2.24-1.31,2.78,.65,3.8,.98,.51,2.46,.38,2.89,.65,.36,.64-.32,.91-.12,1.99,.74,.91,1.39,.22,1.44,1.97,.02,.8-.12,.76-.37,1.36-.25,.6,0,.68-.17,1.14-.53,1.42-.43,.58-.59,2.75-.06,.8-.27,2.29,.06,3,.82,.71,2.51,.13,3.46,1.02,1.4,1.32,.1,3.03,.92,3.58,.56,.38,2.54-1.11,1.67,2.12-.34,1.24-.45,.98,.35,1.74,.62,.6,.56,1.13,.4,2.14-.42,2.79-.92,.87-4.09,3.67-3.12,2.75-2.68,2.77-1.72,4.07,.54,.73,.32,.64,.46,1.64,1.29,.08,.7-.81,1.85,.38,1.33,1.39,2.17,1.76,2.6,2.78,.5,1.22,1.28-.27,1.72,.63Z"/>
  <path class="cls-3" d="M35.02,73.88c-1.11,0-1.78-.55-2.01-1.64L22.18,26.29v45.95c0,1.09-.53,1.64-1.59,1.64H7.39c-1.09,0-1.64-.55-1.64-1.64V7.03c0-1.09,.55-1.65,1.64-1.65H27.9c1.09,0,1.76,.56,2.01,1.65l10.91,46.26L51.73,7.03c.25-1.09,.92-1.65,2.01-1.65h20.5c1.11,0,1.65,.56,1.65,1.65V72.24c0,1.09-.55,1.64-1.65,1.64h-13.19c-1.08,0-1.61-.55-1.61-1.64V26.29l-10.82,45.95c-.25,1.09-.92,1.64-2.01,1.64h-11.6ZM106.92,30.86l-4.1,20h8.21l-4.11-20h0Zm-6.16,30.05l-2.32,11.33c-.19,1.09-.83,1.64-1.93,1.64h-13.73c-.92,0-1.37-.37-1.37-1.14,0-.16,.02-.33,.05-.5l12.5-51.51c.22-1.09,.87-1.65,1.96-1.65h22.02c1.09,0,1.75,.56,1.95,1.65l12.52,51.51c.03,.17,.05,.34,.05,.5,0,.76-.45,1.14-1.37,1.14h-13.75c-1.09,0-1.73-.55-1.92-1.64l-2.32-11.33h-12.33Zm82.65,.64c0,3.41-1.51,6.31-4.52,8.73-3.02,2.4-6.66,3.6-10.91,3.6h-28.37c-1.09,0-1.64-.55-1.64-1.64V20.73c0-1.09,.55-1.65,1.64-1.65h28.37c4.25,0,7.89,1.22,10.91,3.62,3.01,2.4,4.52,5.31,4.52,8.71v30.14h0Zm-29,.28c0,.72,.37,1.09,1.11,1.09h8.26c2.14,0,3.19-1.08,3.19-3.19v-26.48c0-2.14-1.06-3.21-3.19-3.21h-8.26c-.73,0-1.11,.37-1.11,1.11v30.69h0Zm35.85-.28V20.73c0-1.09,.55-1.65,1.64-1.65h37.81c1.09,0,1.64,.56,1.64,1.65v7.67c0,1.09-.55,1.64-1.64,1.64h-21.91c-.73,0-1.11,.37-1.11,1.11v8.76c0,.73,.37,1.11,1.11,1.11h18.27c1.09,0,1.64,.55,1.64,1.64v7.67c0,1.11-.55,1.65-1.64,1.65h-18.27c-.73,0-1.11,.36-1.11,1.09v3.93c0,3.96,1.98,5.94,5.94,5.94h18.22c1.11,0,1.65,.55,1.65,1.64v7.68c0,1.09-.55,1.64-1.65,1.64h-25.15c-4.25,0-7.9-1.2-10.91-3.6-3.02-2.42-4.52-5.31-4.52-8.73h0Zm65.51,10.69c0,1.09-.53,1.64-1.59,1.64h-13.2c-1.09,0-1.64-.55-1.64-1.64V20.73c0-1.09,.55-1.65,1.64-1.65h13.2c1.06,0,1.59,.56,1.59,1.65v51.51Z"/>
  <path class="cls-3" d="M280.15,30.03c-.73,0-1.11,.37-1.11,1.11v8.76c0,.73,.37,1.11,1.11,1.11h7.34c2.14,0,3.21-1.08,3.21-3.21v-4.55c0-2.14-1.08-3.21-3.21-3.21h-7.34Zm0,21.93c-.73,0-1.11,.36-1.11,1.09v8.77c0,.72,.37,1.09,1.11,1.09h7.81c2.88,0,4.33-1.08,4.33-3.19v-4.57c0-2.14-1.22-3.2-3.65-3.2h-8.49Zm11.55-32.89c4.25,0,7.9,1.22,10.91,3.62,3.02,2.4,4.52,5.31,4.52,8.71v4.21c0,3.41-1.5,6.31-4.52,8.71-.3,.25-.61,.47-.9,.65v.03c.87,.47,1.71,1,2.51,1.61,3.01,2.4,4.52,5.35,4.52,8.81v6.13c0,3.41-1.51,6.31-4.52,8.73-3.02,2.4-6.66,3.6-10.91,3.6h-29.05c-1.09,0-1.64-.55-1.64-1.64V20.73c0-1.09,.55-1.65,1.64-1.65h27.45Zm41.41,10.96c-.73,0-1.11,.37-1.11,1.11v8.76c0,.73,.37,1.11,1.11,1.11h6.89c2.14,0,3.2-1.08,3.2-3.21v-4.55c0-2.14-1.06-3.21-3.2-3.21h-6.89Zm22.91,16.4c2.56,2.29,3.85,5,3.85,8.18v17.63c0,1.09-.56,1.64-1.65,1.64h-13.37c-1.11,0-1.65-.55-1.65-1.64v-16.63c0-2.43-1.22-3.65-3.65-3.65h-6.62c-.61,0-.92,.36-.92,1.09v19.19c0,1.09-.55,1.64-1.64,1.64h-13.15c-1.09,0-1.64-.55-1.64-1.64V20.73c0-1.09,.55-1.65,1.64-1.65h26.99c4.26,0,7.9,1.22,10.91,3.62,3.01,2.4,4.52,5.31,4.52,8.71v7.04c0,3.04-1.2,5.69-3.62,7.93v.05h0Zm34.88-15.57l-4.1,20h8.21l-4.11-20h0Zm-6.16,30.05l-2.32,11.33c-.19,1.09-.83,1.64-1.93,1.64h-13.73c-.92,0-1.37-.37-1.37-1.14,0-.16,.02-.33,.05-.5l12.5-51.51c.22-1.09,.87-1.65,1.96-1.65h22.02c1.09,0,1.75,.56,1.95,1.65l12.52,51.51c.03,.17,.05,.34,.05,.5,0,.76-.45,1.14-1.37,1.14h-13.75c-1.09,0-1.73-.55-1.92-1.64l-2.32-11.33h-12.33Zm9.18-46.62c-.45,.45-.98,.9-1.56,1.37-.58,.45-1.28,.69-2.1,.69h-5.52c-1,0-1.6-.25-1.78-.73-.03-.12-.05-.25-.05-.37,0-.45,.22-1.01,.69-1.68l8.07-11.33c.5-.67,.94-1.2,1.36-1.62,.41-.4,1.01-.61,1.79-.61h9.65c1.42,0,2.23,.26,2.42,.81v.33c0,.48-.37,1.09-1.09,1.82l-11.88,11.33h0Zm70.45,32.18c1.11,1.4,1.65,2.98,1.65,4.71v10.36c0,3.41-1.51,6.31-4.52,8.73-3.01,2.4-6.65,3.6-10.91,3.6h-26.31c-1.09,0-1.64-.55-1.64-1.64v-7.68c0-1.09,.54-1.64,1.64-1.64h21.65c2.43,0,3.65-.98,3.65-2.93v-4.57c0-1.79-.98-2.88-2.96-3.29l-15.66-3.01c-2.17-.33-4.15-1.22-5.94-2.65-.54-.45-1.01-.94-1.42-1.47-1.09-1.39-1.64-2.96-1.64-4.69v-8.92c0-3.4,1.5-6.31,4.52-8.71,3.01-2.4,6.66-3.62,10.91-3.62h24.94c1.09,0,1.64,.56,1.64,1.65v7.67c0,1.09-.55,1.64-1.64,1.64h-20.28c-2.43,0-3.66,.98-3.66,2.93v3.1c0,1.79,1,2.9,2.98,3.29l15.66,3.01c2.15,.34,4.13,1.23,5.94,2.65,.55,.47,1.01,.95,1.4,1.47Z"/>
  <rect class="cls-1" y="82.63" width="509.09" height="3.54"/>
  <path class="cls-3" d="M2.23,109.98h1.47v-14.23l5,14.23h1.3l5.03-14.23v14.23h1.47v-16.54h-2.13l-4.99,14.16-5.02-14.16H2.23v16.54h0Zm42.57-1.7v.18c0,.54,.14,.95,.42,1.24,.28,.28,.71,.42,1.28,.42,.12,0,.24,0,.38-.02,.19-.03,.4-.06,.6-.09v-1.04h-.49c-.39,0-.64-.09-.76-.27-.07-.12-.11-.39-.11-.81v-6.49c0-1.2-.37-2.1-1.12-2.71-.73-.6-1.8-.89-3.22-.89s-2.6,.35-3.44,1.05c-.84,.69-1.26,1.62-1.28,2.8h1.38c.03-.88,.33-1.54,.89-1.99,.57-.43,1.38-.65,2.45-.65s1.81,.21,2.27,.62c.45,.39,.67,1.04,.67,1.97,0,.55-.2,.94-.6,1.16-.29,.18-.79,.3-1.47,.36l-.62,.05c-.87,.06-1.5,.13-1.92,.2-.67,.1-1.24,.28-1.72,.52-.64,.27-1.12,.66-1.43,1.17-.32,.51-.49,1.11-.49,1.82,0,1.03,.35,1.86,1.05,2.49,.71,.64,1.67,.96,2.88,.96,.83,0,1.62-.17,2.35-.52,.73-.34,1.41-.85,2.06-1.52h0Zm-.08-4.55v1.68c0,1.12-.39,2.02-1.16,2.69-.76,.66-1.75,.99-2.98,.99-.83,0-1.49-.21-1.98-.63-.47-.42-.71-.96-.71-1.64s.22-1.17,.67-1.59c.49-.47,1.18-.75,2.07-.85l1.38-.18c.7-.06,1.2-.12,1.5-.18,.49-.07,.9-.17,1.22-.29h0Zm32.18-10.29h-1.38v6.56c-.46-.67-1.04-1.23-1.74-1.66-.68-.37-1.46-.56-2.34-.56-1.62,0-2.91,.65-3.86,1.95-.85,1.18-1.27,2.62-1.27,4.32s.42,3.12,1.27,4.3c.95,1.32,2.24,1.97,3.86,1.97,.86,0,1.67-.23,2.41-.68,.72-.42,1.27-.99,1.67-1.7v2.04h1.38v-16.54h0Zm-5.23,5.55c1.25,0,2.24,.52,2.99,1.57,.67,.94,1,2.1,1,3.47s-.33,2.52-1,3.47c-.75,1.06-1.74,1.59-2.99,1.59s-2.24-.53-2.96-1.59c-.65-.95-.98-2.11-.98-3.47s.33-2.53,.98-3.47c.73-1.04,1.72-1.57,2.96-1.57h0Zm26.39,4.18c-.02-1.22,.36-2.25,1.12-3.08,.67-.73,1.52-1.09,2.57-1.09s1.86,.36,2.5,1.09c.71,.83,1.07,1.86,1.07,3.08h-7.25Zm0,1.1h8.69v-.45c0-1.91-.45-3.4-1.34-4.48-.89-1.04-2.11-1.57-3.63-1.57-1.61,0-2.87,.55-3.78,1.64-.93,1.12-1.39,2.68-1.39,4.68s.45,3.49,1.36,4.59c.91,1.09,2.16,1.64,3.74,1.64,1.31,0,2.41-.38,3.29-1.12,.89-.73,1.42-1.7,1.57-2.89h-1.38c-.13,.85-.51,1.53-1.14,2.04-.61,.49-1.35,.74-2.23,.74-1.13,0-2.04-.42-2.72-1.28-.7-.87-1.05-2.05-1.05-3.54h0Zm28.39,5.71h1.38v-11.93h-1.38v11.93h0Zm0-14.45h1.38v-2.09h-1.38v2.09h0Zm21.64,14.45h1.38v-6.6c0-1.37,.3-2.42,.89-3.13,.59-.7,1.42-1.05,2.51-1.05h.2v-1.42h-.16c-.79,0-1.48,.18-2.06,.54-.61,.4-1.08,1.01-1.41,1.82v-2.08h-1.35v11.93h0Zm31.67-1.7v.18c0,.54,.14,.95,.42,1.24,.28,.28,.71,.42,1.28,.42,.12,0,.24,0,.38-.02,.19-.03,.4-.06,.6-.09v-1.04h-.49c-.39,0-.64-.09-.76-.27-.07-.12-.11-.39-.11-.81v-6.49c0-1.2-.37-2.1-1.12-2.71-.73-.6-1.8-.89-3.22-.89s-2.6,.35-3.44,1.05c-.84,.69-1.26,1.62-1.28,2.8h1.38c.03-.88,.33-1.54,.89-1.99,.57-.43,1.38-.65,2.45-.65s1.81,.21,2.27,.62c.45,.39,.67,1.04,.67,1.97,0,.55-.2,.94-.6,1.16-.29,.18-.79,.3-1.47,.36l-.62,.05c-.86,.06-1.5,.13-1.92,.2-.67,.1-1.24,.28-1.72,.52-.64,.27-1.12,.66-1.43,1.17-.32,.51-.49,1.11-.49,1.82,0,1.03,.35,1.86,1.05,2.49,.71,.64,1.67,.96,2.88,.96,.83,0,1.62-.17,2.35-.52,.73-.34,1.41-.85,2.06-1.52h0Zm-.08-4.55v1.68c0,1.12-.39,2.02-1.16,2.69-.76,.66-1.75,.99-2.98,.99-.83,0-1.49-.21-1.98-.63-.47-.42-.71-.96-.71-1.64s.22-1.17,.67-1.59c.49-.47,1.18-.75,2.07-.85l1.38-.18c.7-.06,1.2-.12,1.5-.18,.49-.07,.9-.17,1.22-.29h0Zm48.9,6.25h1.38v-2.02c.51,.79,1.1,1.38,1.79,1.77,.67,.39,1.45,.59,2.33,.59,1.6,0,2.88-.66,3.83-1.97,.87-1.18,1.3-2.61,1.3-4.3s-.43-3.14-1.3-4.32c-.95-1.3-2.23-1.95-3.83-1.95-.89,0-1.7,.21-2.42,.63-.7,.39-1.27,.96-1.7,1.7v-6.67h-1.38v16.54h0Zm5.24-10.99c1.24,0,2.22,.52,2.95,1.57,.67,.94,1.01,2.1,1.01,3.47s-.34,2.52-1.01,3.47c-.73,1.06-1.71,1.59-2.95,1.59s-2.27-.53-3-1.59c-.65-.95-.98-2.11-.98-3.47s.33-2.53,.98-3.47c.73-1.04,1.73-1.57,3-1.57h0Zm24.98,10.99h1.38v-6.6c0-1.37,.3-2.42,.89-3.13,.58-.7,1.42-1.05,2.51-1.05h.2v-1.42h-.16c-.79,0-1.48,.18-2.06,.54-.61,.4-1.08,1.01-1.41,1.82v-2.08h-1.35v11.93h0Zm31.67-1.7v.18c0,.54,.14,.95,.42,1.24,.28,.28,.71,.42,1.28,.42,.12,0,.24,0,.38-.02,.19-.03,.4-.06,.6-.09v-1.04h-.49c-.39,0-.64-.09-.76-.27-.07-.12-.11-.39-.11-.81v-6.49c0-1.2-.37-2.1-1.12-2.71-.73-.6-1.8-.89-3.22-.89s-2.6,.35-3.44,1.05c-.84,.69-1.26,1.62-1.28,2.8h1.38c.03-.88,.33-1.54,.89-1.99,.57-.43,1.38-.65,2.45-.65s1.81,.21,2.27,.62c.45,.39,.67,1.04,.67,1.97,0,.55-.2,.94-.6,1.16-.29,.18-.79,.3-1.47,.36l-.62,.05c-.86,.06-1.5,.13-1.92,.2-.67,.1-1.24,.28-1.72,.52-.64,.27-1.12,.66-1.43,1.17-.32,.51-.49,1.11-.49,1.82,0,1.03,.35,1.86,1.05,2.49,.71,.64,1.67,.96,2.88,.96,.83,0,1.62-.17,2.35-.52,.73-.34,1.41-.85,2.06-1.52h0Zm-.08-4.55v1.68c0,1.12-.39,2.02-1.16,2.69-.76,.66-1.75,.99-2.98,.99-.83,0-1.49-.21-1.98-.63-.47-.42-.71-.96-.71-1.64s.22-1.17,.67-1.59c.49-.47,1.18-.75,2.07-.85l1.38-.18c.7-.06,1.2-.12,1.49-.18,.49-.07,.9-.17,1.22-.29h0Zm21.58,2.53c.03,1.23,.45,2.21,1.28,2.94,.83,.75,1.95,1.12,3.33,1.12s2.48-.33,3.31-.99c.82-.64,1.23-1.46,1.23-2.44s-.29-1.69-.87-2.2c-.54-.46-1.46-.85-2.76-1.17l-.54-.13c-1.27-.3-2.09-.55-2.46-.76-.57-.34-.85-.88-.85-1.61,0-.61,.22-1.09,.67-1.45,.49-.39,1.15-.58,1.96-.58,.92,0,1.66,.22,2.21,.67,.54,.46,.83,1.1,.89,1.9h1.42c-.09-1.19-.53-2.12-1.32-2.78-.79-.67-1.85-1.01-3.18-1.01-1.22,0-2.22,.32-2.98,.96-.75,.64-1.12,1.47-1.12,2.49,0,.96,.36,1.69,1.07,2.19,.58,.42,1.66,.82,3.23,1.21h.06c1.21,.3,1.98,.55,2.33,.76,.54,.31,.81,.8,.81,1.48s-.28,1.19-.83,1.59c-.58,.42-1.36,.63-2.34,.63-.92,0-1.67-.27-2.25-.81-.59-.52-.89-1.19-.89-2.01h-1.42Zm28.85,3.72h1.38v-11.93h-1.38v11.93h0Zm0-14.45h1.38v-2.09h-1.38v2.09h0Zm21.71,14.45h1.38v-16.54h-1.38v16.54h0Zm22.65-6.81c-.02-1.22,.36-2.25,1.12-3.08,.67-.73,1.52-1.09,2.57-1.09s1.86,.36,2.5,1.09c.72,.83,1.07,1.86,1.07,3.08h-7.25Zm0,1.1h8.69v-.45c0-1.91-.45-3.4-1.34-4.48-.89-1.04-2.11-1.57-3.63-1.57-1.61,0-2.87,.55-3.78,1.64-.93,1.12-1.39,2.68-1.39,4.68s.46,3.49,1.36,4.59c.91,1.09,2.16,1.64,3.74,1.64,1.31,0,2.41-.38,3.29-1.12,.89-.73,1.42-1.7,1.57-2.89h-1.38c-.13,.85-.51,1.53-1.14,2.04-.61,.49-1.35,.74-2.23,.74-1.13,0-2.04-.42-2.72-1.28-.7-.87-1.05-2.05-1.05-3.54h0Zm28.39,5.71h1.38v-11.93h-1.38v11.93h0Zm0-14.45h1.38v-2.09h-1.38v2.09h0Zm21.64,14.45h1.38v-6.6c0-1.37,.3-2.42,.89-3.13,.58-.7,1.42-1.05,2.51-1.05h.2v-1.42h-.16c-.79,0-1.48,.18-2.06,.54-.61,.4-1.08,1.01-1.41,1.82v-2.08h-1.35v11.93h0Zm31.67-1.7v.18c0,.54,.14,.95,.42,1.24,.28,.28,.71,.42,1.28,.42,.12,0,.24,0,.38-.02,.19-.03,.4-.06,.6-.09v-1.04h-.49c-.39,0-.64-.09-.76-.27-.07-.12-.11-.39-.11-.81v-6.49c0-1.2-.37-2.1-1.12-2.71-.73-.6-1.8-.89-3.22-.89s-2.6,.35-3.44,1.05c-.84,.69-1.26,1.62-1.28,2.8h1.38c.03-.88,.33-1.54,.89-1.99,.57-.43,1.38-.65,2.45-.65s1.81,.21,2.27,.62c.45,.39,.67,1.04,.67,1.97,0,.55-.2,.94-.6,1.16-.29,.18-.79,.3-1.47,.36l-.62,.05c-.86,.06-1.5,.13-1.92,.2-.67,.1-1.24,.28-1.72,.52-.64,.27-1.12,.66-1.43,1.17-.32,.51-.49,1.11-.49,1.82,0,1.03,.35,1.86,1.05,2.49,.71,.64,1.67,.96,2.88,.96,.83,0,1.62-.17,2.35-.52,.73-.34,1.41-.85,2.06-1.52h0Zm-.08-4.55v1.68c0,1.12-.39,2.02-1.16,2.69-.76,.66-1.75,.99-2.98,.99-.83,0-1.49-.21-1.98-.63-.47-.42-.71-.96-.71-1.64s.22-1.17,.67-1.59c.49-.47,1.18-.75,2.07-.85l1.38-.18c.7-.06,1.2-.12,1.49-.18,.49-.07,.9-.17,1.22-.29Z"/>
</svg>